<svg width="24" height="24" fill="none" xmlns="http://www.w3.org/2000/svg"><path fill-rule="evenodd" clip-rule="evenodd" d="M19.948 16.32a1.8 1.8 0 0 1 .125-1.047 1.8 1.8 0 0 1 1.647-1.091h.098a2.182 2.182 0 0 0 0-4.364h-.185a1.8 1.8 0 0 1-1.648-1.09V8.64a1.8 1.8 0 0 1 .36-1.985l.066-.066a2.181 2.181 0 0 0-.708-3.56 2.182 2.182 0 0 0-2.38.473l-.065.065a1.8 1.8 0 0 1-1.985.36 1.8 1.8 0 0 1-1.091-1.647v-.098a2.182 2.182 0 0 0-4.364 0v.185a1.8 1.8 0 0 1-1.09 1.648H8.64a1.8 1.8 0 0 1-1.985-.36l-.066-.066a2.182 2.182 0 0 0-3.727 1.544 2.182 2.182 0 0 0 .64 1.543l.065.066a1.8 1.8 0 0 1 .36 1.985A1.8 1.8 0 0 1 2.28 9.905h-.098a2.182 2.182 0 1 0 0 4.364h.185a1.8 1.8 0 0 1 1.648 1.091 1.8 1.8 0 0 1-.36 1.986l-.066.065a2.182 2.182 0 1 0 3.087 3.087l.066-.065a1.8 1.8 0 0 1 1.985-.36 1.8 1.8 0 0 1 1.178 1.647v.098a2.182 2.182 0 0 0 4.364 0v-.185a1.8 1.8 0 0 1 1.091-1.648 1.799 1.799 0 0 1 1.986.36l.065.066a2.181 2.181 0 0 0 3.727-1.544 2.181 2.181 0 0 0-.64-1.543l-.065-.066a1.8 1.8 0 0 1-.485-.937zM12 7.637a4.364 4.364 0 1 0 0 8.728 4.364 4.364 0 0 0 0-8.728zM9.818 12a2.182 2.182 0 1 1 4.364 0 2.182 2.182 0 0 1-4.364 0z" fill="#FAFAFA"/></svg>