<svg width="24" height="24" fill="none" xmlns="http://www.w3.org/2000/svg"><path fill-rule="evenodd" clip-rule="evenodd" d="M12 1a3 3 0 0 0-1.498.4l-6.998 4-.004.002c-.092.053-.18.11-.266.173l8.753 5.26 8.552-5.41a2.632 2.632 0 0 0-.039-.023l-7-4-.002-.001A3 3 0 0 0 12 1zm9.821 5.98L13 12.56v10.264a2.99 2.99 0 0 0 .498-.229l.002-.001 6.996-3.998.004-.002a3 3 0 0 0 1.5-2.595V7.997a2.98 2.98 0 0 0-.179-1.017zM11 22.824V12.576L2.101 7.227a3 3 0 0 0-.101.77v8.002a3 3 0 0 0 1.5 2.595l.004.002 6.996 3.998.002.001c.16.092.326.169.498.23z" fill="#404040"/></svg>