<svg width="374" height="304" viewBox="0 0 374 304" fill="none" xmlns="http://www.w3.org/2000/svg">
<path d="M124.63 190.99H176.83V175.99H152.47L168.58 151.68C176.19 140.12 179.15 132.68 179.15 124.57C179.15 110.88 168.45 101.05 153.37 101.05C136.37 101.05 126.05 112.48 126.18 131.21H141.39C141.51 126.69 141.77 125.1 142.67 122.71C144.09 118.85 147.67 116.46 152.34 116.46C158.27 116.46 162.52 120.58 162.52 126.3C162.52 130.55 161.23 133.3 154.66 143.7L124.63 190.99Z" fill="#404040"/>
<path d="M203.54 241.08H194.32V230.37H208.88V223.18H194.32V212.66H208.88V205.48H185.8V248.26H199.66L203.54 241.08Z" fill="#404040"/>
<path d="M186.62 190.99H230.62L238.73 175.99H214.47L230.58 151.68C238.18 140.12 241.14 132.68 241.14 124.57C241.14 110.88 230.45 101.05 215.37 101.05C198.37 101.05 188.04 112.48 188.17 131.21H203.38C203.51 126.69 203.77 125.1 204.67 122.71C206.09 118.85 209.67 116.46 214.34 116.46C220.26 116.46 224.52 120.58 224.52 126.3C224.52 130.55 223.23 133.3 216.66 143.7L186.62 190.99Z" fill="#404040"/>
<path d="M44.7202 151.67C52.3202 140.11 55.29 132.67 55.29 124.56C55.29 110.87 44.59 101.04 29.51 101.04C12.51 101.04 2.19006 112.47 2.31006 131.2H17.52C17.65 126.68 17.9101 125.09 18.8101 122.7C20.2301 118.84 23.8102 116.45 28.4802 116.45C34.4102 116.45 38.6602 120.57 38.6602 126.29C38.6602 130.54 37.37 133.29 30.8 143.69L0.800049 190.99H53V175.99H28.6101L44.7202 151.67Z" fill="#404040"/>
<path d="M22.1001 248.26H30.6299V230.37H45.1899V223.18H30.6299V212.66H45.1899V205.48H22.1001V248.26Z" fill="#404040"/>
<path d="M126.98 205.48L112.67 248.27H121.67L124.16 240.89H140.11L142.48 248.27H151.81L137.62 205.48H126.98ZM126.36 233.71L132.15 216L137.87 233.71H126.36Z" fill="#404040"/>
<path d="M180.06 241.02H166.18V205.48H157.66V248.26H180.06V241.02Z" fill="#404040"/>
<path d="M62.02 205.48H53.5V248.27H62.02V205.48Z" fill="#404040"/>
<path d="M98.29 232.16L80.9299 205.48H72.53V248.26H81.05V221.2L98.47 248.26H106.81V205.48H98.29V232.16Z" fill="#404040"/>
<path d="M118.11 129.74C118.11 119.11 115.91 113 110.37 107.95C105.47 103.43 98.7702 101.04 90.9102 101.04C82.2802 101.04 74.8002 103.96 70.1602 109.28C66.0402 113.93 64.3601 120.44 64.3601 131.87V160.17C64.3601 173.99 66.04 180.36 70.8 185.28C75.56 190.2 82.8002 192.72 91.4302 192.72C99.6702 192.72 106.25 190.33 111.02 185.72C116.02 180.8 118.11 174.42 118.11 164.19V129.74ZM101.86 161.9C101.86 167.61 101.35 170.27 100.06 172.53C99.1251 173.955 97.8414 175.117 96.3311 175.906C94.8207 176.696 93.1338 177.086 91.4302 177.04C87.9402 177.04 84.43 175.45 82.79 172.79C81.24 170.66 80.99 169.07 80.99 162.03V131.87C80.99 126.29 81.5 123.63 82.79 121.37C84.34 118.58 87.5602 116.99 91.4302 116.99C92.903 116.938 94.3694 117.208 95.7271 117.781C97.0847 118.355 98.3007 119.218 99.29 120.31C101.22 122.56 101.86 125.09 101.86 131.07V161.9Z" fill="#404040"/>
<path d="M156.25 88.97H139.82V0.0999756H156.25V88.97Z" fill="#404040"/>
<path d="M195.18 0.0999756C205.01 0.0999756 211.37 1.70992 215.56 5.16992C220.48 9.29992 223.23 16.1 223.23 23.95C223.23 30.0766 221.564 35.1399 218.23 39.1399C215.95 41.6699 214.15 42.87 209.84 44.47C214.63 45.67 216.84 46.7299 219.31 49.2699C223.03 52.9899 225.06 58.4599 225.06 65.2699C225.06 73.5299 221.95 80.86 216.79 84.72C212.59 87.79 207.68 88.99 198.93 88.99H169.43V0.119995L195.18 0.0999756ZM185.83 37.8099H192.42C202.13 37.8099 206.69 33.9399 206.69 25.6799C206.69 21.1599 204.77 17.2899 201.89 15.6799C199.62 14.4799 196.26 13.95 191.58 13.95H185.83V37.8099ZM185.83 75.5099H193.83C199.47 75.5099 202.1 74.98 204.5 73.11C207.14 71.11 208.5 67.9199 208.5 63.6499C208.5 58.8499 206.94 55.5299 203.94 53.5299C201.43 51.9299 198.94 51.3999 192.94 51.3999H185.87L185.83 75.5099Z" fill="#404040"/>
<path d="M296.48 68.9399V68.99L275.29 0.0999756H254.79L227.21 88.97H244.59L249.39 73.6499H280.11L284.66 88.97L296.48 68.9399ZM253.61 58.72L264.76 21.95L275.76 58.72H253.61Z" fill="#404040"/>
<path d="M240.66 231.45H244.3L239.57 248.4H236.11L233.44 237.3L230.78 248.4H227.27L222.65 231.45H226.33L229.05 242.15L231.79 231.45H235.25L237.89 242.33L240.66 231.45Z" fill="#404040"/>
<path d="M261.11 248.4H257.63V231.45H261.11V248.4Z" fill="#404040"/>
<path d="M278.36 243.45V243.68C278.374 243.965 278.445 244.245 278.57 244.502C278.695 244.759 278.871 244.988 279.087 245.175C279.303 245.362 279.554 245.503 279.826 245.59C280.099 245.677 280.386 245.707 280.67 245.68C280.937 245.713 281.208 245.693 281.466 245.619C281.725 245.545 281.966 245.42 282.175 245.251C282.384 245.082 282.557 244.873 282.683 244.635C282.81 244.398 282.887 244.138 282.91 243.87C282.907 243.609 282.842 243.351 282.723 243.119C282.603 242.886 282.431 242.685 282.22 242.53C281.591 242.103 280.895 241.785 280.16 241.59C276.45 240.26 275.16 238.87 275.16 236.28C275.16 233.2 277.42 231.14 280.75 231.14C281.471 231.083 282.197 231.173 282.882 231.407C283.567 231.64 284.197 232.012 284.732 232.498C285.268 232.984 285.699 233.575 285.998 234.234C286.297 234.893 286.458 235.606 286.47 236.33H282.96C282.978 236.04 282.932 235.749 282.826 235.478C282.719 235.207 282.555 234.963 282.345 234.762C282.135 234.561 281.883 234.408 281.607 234.315C281.332 234.221 281.039 234.189 280.75 234.22C280.494 234.186 280.234 234.207 279.986 234.28C279.739 234.354 279.509 234.478 279.313 234.646C279.117 234.814 278.959 235.021 278.848 235.255C278.737 235.488 278.676 235.742 278.67 236C278.669 236.334 278.762 236.661 278.939 236.944C279.116 237.227 279.37 237.455 279.67 237.6C280.312 237.936 280.981 238.217 281.67 238.44C282.97 238.801 284.175 239.442 285.2 240.32C285.64 240.741 285.988 241.25 286.22 241.813C286.452 242.376 286.565 242.981 286.55 243.59C286.55 246.69 284.21 248.75 280.71 248.75C277.21 248.75 274.96 246.75 274.99 243.47L278.36 243.45Z" fill="#404040"/>
<path d="M303.36 243.45V243.68C303.374 243.966 303.445 244.245 303.57 244.502C303.695 244.759 303.871 244.988 304.087 245.175C304.303 245.362 304.554 245.503 304.826 245.59C305.099 245.677 305.386 245.708 305.67 245.68C305.936 245.712 306.206 245.69 306.463 245.616C306.721 245.541 306.96 245.416 307.168 245.247C307.376 245.078 307.548 244.869 307.674 244.633C307.8 244.396 307.877 244.137 307.9 243.87C307.899 243.609 307.836 243.353 307.718 243.12C307.6 242.887 307.43 242.685 307.22 242.53C306.591 242.103 305.895 241.786 305.16 241.59C301.45 240.26 300.16 238.87 300.16 236.28C300.16 233.2 302.42 231.14 305.75 231.14C306.471 231.084 307.196 231.176 307.88 231.41C308.564 231.644 309.194 232.016 309.729 232.502C310.265 232.988 310.696 233.578 310.995 234.236C311.294 234.894 311.456 235.607 311.47 236.33H307.96C307.978 236.04 307.932 235.749 307.826 235.478C307.719 235.207 307.555 234.963 307.345 234.762C307.135 234.561 306.883 234.409 306.607 234.315C306.332 234.221 306.039 234.189 305.75 234.22C305.494 234.186 305.234 234.207 304.986 234.28C304.739 234.354 304.509 234.478 304.313 234.646C304.117 234.814 303.959 235.021 303.848 235.255C303.737 235.488 303.676 235.742 303.67 236C303.669 236.334 303.762 236.661 303.939 236.944C304.116 237.228 304.37 237.455 304.67 237.6C305.31 237.94 305.979 238.222 306.67 238.44C307.969 238.803 309.174 239.445 310.2 240.32C310.64 240.741 310.988 241.25 311.22 241.813C311.452 242.376 311.565 242.981 311.55 243.59C311.55 246.69 309.21 248.75 305.7 248.75C302.19 248.75 299.96 246.75 299.99 243.47L303.36 243.45Z" fill="#404040"/>
<path d="M328.99 238.47H334.94V241.31H328.99V245.56H334.94V248.4H325.51V231.45H334.94V234.3H328.99V238.47Z" fill="#404040"/>
<path d="M352.69 248.4H349.21V231.45H352.64L359.73 242.03V231.45H363.21V248.4H359.8L352.69 237.68V248.4Z" fill="#404040"/>
<path d="M212.11 270.94V271.17C212.124 271.456 212.195 271.735 212.32 271.992C212.445 272.249 212.621 272.478 212.837 272.665C213.053 272.852 213.304 272.993 213.576 273.08C213.849 273.167 214.136 273.198 214.42 273.17C214.686 273.204 214.956 273.183 215.214 273.11C215.472 273.037 215.712 272.913 215.921 272.745C216.13 272.577 216.303 272.368 216.43 272.132C216.557 271.896 216.635 271.637 216.66 271.37C216.661 271.106 216.598 270.846 216.478 270.612C216.358 270.377 216.184 270.174 215.97 270.02C215.36 269.598 214.684 269.28 213.97 269.08C210.26 267.76 208.97 266.36 208.97 263.77C208.97 260.69 211.24 258.63 214.57 258.63C215.29 258.576 216.014 258.669 216.697 258.903C217.38 259.138 218.008 259.51 218.543 259.996C219.077 260.481 219.507 261.071 219.806 261.729C220.104 262.386 220.266 263.098 220.28 263.82H216.78C216.798 263.53 216.752 263.239 216.645 262.968C216.539 262.697 216.375 262.453 216.165 262.252C215.954 262.051 215.703 261.899 215.427 261.805C215.152 261.711 214.859 261.679 214.57 261.71C214.313 261.676 214.053 261.697 213.805 261.77C213.556 261.844 213.327 261.968 213.13 262.136C212.933 262.304 212.773 262.511 212.661 262.744C212.549 262.977 212.488 263.231 212.48 263.49C212.481 263.823 212.575 264.15 212.752 264.433C212.929 264.715 213.181 264.943 213.48 265.09C214.121 265.427 214.791 265.708 215.48 265.93C216.777 266.3 217.98 266.941 219.01 267.81C219.449 268.233 219.796 268.744 220.027 269.309C220.257 269.873 220.367 270.48 220.35 271.09C220.35 274.19 218.02 276.24 214.51 276.24C211 276.24 208.77 274.24 208.79 270.96L212.11 270.94Z" fill="#404040"/>
<path d="M248.11 273.66C247.294 274.499 246.313 275.16 245.229 275.601C244.144 276.041 242.98 276.252 241.81 276.22C240.673 276.266 239.539 276.062 238.489 275.623C237.438 275.185 236.497 274.522 235.73 273.68C234.234 271.956 233.419 269.743 233.44 267.46C233.44 262.3 236.95 258.61 241.86 258.61C243.059 258.569 244.252 258.789 245.357 259.256C246.462 259.722 247.453 260.423 248.26 261.31L246 263.6C245.486 263.053 244.866 262.615 244.179 262.313C243.492 262.011 242.751 261.85 242 261.84C239 261.84 237 264.13 237 267.38C237 270.63 239.18 273 242.23 273C242.952 273.022 243.67 272.877 244.327 272.577C244.984 272.277 245.563 271.83 246.02 271.27L248.11 273.66Z" fill="#404040"/>
<path d="M265.11 275.9H261.63V258.9H265.11V266.07H271.54V258.9H275.03V275.9H271.54V268.96H265.11V275.9Z" fill="#404040"/>
<path d="M292.78 272.97L291.78 275.9H288.11L293.95 258.9H298.3L304.09 275.9H300.28L299.28 272.97H292.78ZM296.03 263.11L293.67 270.11H298.37L296.03 263.11Z" fill="#404040"/>
<path d="M320.55 265.96H326.49V268.82H320.55V275.92H317.11V258.92H326.54V261.82H320.6L320.55 265.96Z" fill="#404040"/>
<path d="M343.61 265.96H349.56V268.82H343.61V275.92H340.11V258.92H349.54V261.82H343.59L343.61 265.96Z" fill="#404040"/>
<path d="M369.57 275.9H366.11V261.82H362.11V258.97H373.65V261.82H369.65L369.57 275.9Z" fill="#404040"/>
<path d="M199.21 298.43V298.66C199.228 298.949 199.303 299.231 199.432 299.489C199.562 299.748 199.742 299.977 199.963 300.164C200.183 300.351 200.439 300.492 200.716 300.577C200.992 300.662 201.283 300.69 201.57 300.66C201.839 300.699 202.113 300.683 202.376 300.613C202.639 300.542 202.884 300.419 203.097 300.251C203.311 300.082 203.488 299.872 203.617 299.633C203.746 299.394 203.826 299.131 203.85 298.86C203.849 298.596 203.784 298.336 203.663 298.101C203.541 297.866 203.365 297.664 203.15 297.51C202.507 297.082 201.798 296.764 201.05 296.57C197.26 295.25 195.91 293.85 195.91 291.26C195.91 288.18 198.22 286.12 201.62 286.12C205.02 286.12 207.17 288.06 207.46 291.31H203.88C203.899 291.015 203.852 290.719 203.743 290.445C203.634 290.17 203.465 289.923 203.249 289.721C203.033 289.519 202.775 289.368 202.493 289.278C202.211 289.188 201.913 289.161 201.62 289.2C200.35 289.2 199.49 289.91 199.49 290.98C199.496 291.321 199.601 291.654 199.79 291.937C199.98 292.221 200.247 292.444 200.56 292.58C201.201 292.917 201.87 293.198 202.56 293.42C203.881 293.788 205.111 294.429 206.17 295.3C206.616 295.72 206.968 296.229 207.204 296.794C207.44 297.359 207.554 297.968 207.54 298.58C207.54 301.68 205.15 303.74 201.54 303.74C197.93 303.74 195.68 301.74 195.71 298.45L199.21 298.43Z" fill="#404040"/>
<path d="M229.11 303.39H225.55V289.28H221.43V286.44H233.2V289.28H229.11V303.39Z" fill="#404040"/>
<path d="M249.84 300.46L248.84 303.39H245.08L251.08 286.39H255.51L261.43 303.39H257.54L256.54 300.46H249.84ZM253.16 290.6L250.75 297.6H255.55L253.16 290.6Z" fill="#404040"/>
<path d="M275.91 286.44H280.81C283.61 286.44 285.51 286.99 287.04 288.32C287.936 289.121 288.645 290.11 289.115 291.216C289.585 292.323 289.805 293.519 289.76 294.72C289.85 295.887 289.685 297.061 289.276 298.158C288.868 299.255 288.226 300.251 287.394 301.075C286.563 301.9 285.562 302.534 284.462 302.934C283.361 303.334 282.187 303.489 281.02 303.39H275.91V286.44ZM279.46 300.51H280.14C281.594 300.643 283.045 300.229 284.21 299.35C284.84 298.78 285.336 298.079 285.664 297.297C285.993 296.514 286.145 295.668 286.11 294.82C286.11 291.44 283.99 289.26 280.72 289.26H279.42L279.46 300.51Z" fill="#404040"/>
<path d="M310.8 303.39H307.24V289.28H303.11V286.44H314.88V289.28H310.79L310.8 303.39Z" fill="#404040"/>
<path d="M284.81 101.28L301.9 110.29L284.8 119.19L284.81 101.28Z" fill="#404040"/>
</svg>
