<svg width="373" height="304" viewBox="0 0 373 304" fill="none" xmlns="http://www.w3.org/2000/svg">
<path d="M123.96 190.99H176.16V175.99H151.81L167.92 151.68C175.52 140.12 178.48 132.68 178.48 124.57C178.48 110.88 167.79 101.05 152.71 101.05C135.71 101.05 125.38 112.48 125.51 131.21H140.72C140.85 126.69 141.11 125.1 142.01 122.71C143.43 118.85 147.01 116.46 151.68 116.46C157.6 116.46 161.86 120.58 161.86 126.3C161.86 130.55 160.57 133.3 154 143.7L123.96 190.99Z" fill="#FEEB1F"/>
<path d="M202.88 241.08H193.66V230.37H208.22V223.18H193.66V212.66H208.22V205.48H185.13V248.26H198.99L202.88 241.08Z" fill="#FEEB1F"/>
<path d="M185.96 190.99H229.96L238.07 175.99H213.81L229.92 151.68C237.52 140.12 240.49 132.68 240.49 124.57C240.49 110.88 229.79 101.05 214.71 101.05C197.71 101.05 187.39 112.48 187.52 131.21H202.72C202.85 126.69 203.11 125.1 204.01 122.71C205.43 118.85 209.01 116.46 213.68 116.46C219.61 116.46 223.86 120.58 223.86 126.3C223.86 130.55 222.57 133.3 216 143.7L185.96 190.99Z" fill="#FEEB1F"/>
<path d="M44.05 151.67C51.66 140.11 54.6201 132.67 54.6201 124.56C54.6201 110.87 43.9201 101.04 28.8501 101.04C11.8501 101.04 1.52015 112.47 1.65015 131.2H16.8601C16.9901 126.68 17.2401 125.09 18.1501 122.7C19.5701 118.84 23.1501 116.45 27.8101 116.45C33.7401 116.45 38 120.57 38 126.29C38 130.54 36.7101 133.29 30.1301 143.69L0.130127 190.99H52.3301V175.99H27.9702L44.05 151.67Z" fill="#FEEB1F"/>
<path d="M21.4399 248.26H29.96V230.37H44.52V223.18H29.96V212.66H44.52V205.48H21.4399V248.26Z" fill="#FEEB1F"/>
<path d="M126.32 205.48L112.01 248.27H121.01L123.5 240.89H139.43L141.79 248.27H151.11L136.92 205.48H126.32ZM125.69 233.71L131.48 216L137.21 233.71H125.69Z" fill="#FEEB1F"/>
<path d="M179.39 241.02H165.52V205.48H156.99V248.26H179.39V241.02Z" fill="#FEEB1F"/>
<path d="M61.3601 205.48H52.8401V248.27H61.3601V205.48Z" fill="#FEEB1F"/>
<path d="M97.6201 232.16L80.26 205.48H71.8601V248.26H80.3899V221.2L97.8101 248.26H106.15V205.48H97.6201V232.16Z" fill="#FEEB1F"/>
<path d="M117.39 129.74C117.39 119.11 115.2 113 109.66 107.95C104.76 103.43 98.0602 101.04 90.2002 101.04C81.5602 101.04 74.0802 103.96 69.4402 109.28C65.3202 113.93 63.6401 120.44 63.6401 131.87V160.17C63.6401 173.99 65.3201 180.36 70.0901 185.28C74.8601 190.2 82.0902 192.72 90.7102 192.72C98.9602 192.72 105.53 190.33 110.3 185.72C115.3 180.8 117.39 174.42 117.39 164.19V129.74ZM101.11 161.9C101.11 167.61 100.59 170.27 99.3101 172.53C98.3742 173.956 97.0889 175.119 95.5767 175.909C94.0644 176.698 92.3754 177.088 90.6702 177.04C87.1902 177.04 83.67 175.45 82.03 172.79C80.49 170.66 80.2302 169.07 80.2302 162.03V131.87C80.2302 126.29 80.75 123.63 82.03 121.37C83.58 118.58 86.8002 116.99 90.6702 116.99C92.1431 116.937 93.6098 117.207 94.9675 117.78C96.3253 118.354 97.5411 119.217 98.53 120.31C100.46 122.56 101.11 125.09 101.11 131.07V161.9Z" fill="#FEEB1F"/>
<path d="M155.58 88.97H139.11V0.0999756H155.54L155.58 88.97Z" fill="#FEEB1F"/>
<path d="M194.51 0.0999756C204.35 0.0999756 210.7 1.70992 214.89 5.16992C219.81 9.29992 222.57 16.1 222.57 23.95C222.57 30.0766 220.903 35.1399 217.57 39.1399C215.3 41.6699 213.5 42.87 209.18 44.47C213.98 45.67 216.18 46.7299 218.65 49.2699C222.37 52.9899 224.41 58.4599 224.41 65.2699C224.41 73.5299 221.29 80.86 216.14 84.72C211.94 87.79 207.02 88.99 198.27 88.99H168.78V0.119995L194.51 0.0999756ZM185.16 37.8099H191.76C201.47 37.8099 206.02 33.9399 206.02 25.6799C206.02 21.1599 204.11 17.2899 201.23 15.6799C198.95 14.4799 195.59 13.95 190.92 13.95H185.16V37.8099ZM185.16 75.5099H193.16C198.79 75.5099 201.43 74.98 203.83 73.11C206.46 71.11 207.78 67.9199 207.78 63.6499C207.78 58.8499 206.22 55.5299 203.23 53.5299C200.71 51.9299 198.23 51.3999 192.23 51.3999H185.15L185.16 75.5099Z" fill="#FEEB1F"/>
<path d="M295.81 68.9399V68.99L274.62 0.0999756H254.11L226.53 88.97H243.92L248.71 73.6499H279.41L283.96 88.97L295.81 68.9399ZM252.94 58.72L264.09 21.95L275.09 58.72H252.94Z" fill="#FEEB1F"/>
<path d="M240 231.45H243.63L238.91 248.4H235.4L232.73 237.3L230.06 248.4H226.55L221.93 231.45H225.61L228.33 242.15L231.08 231.45H234.53L237.18 242.33L240 231.45Z" fill="#FEEB1F"/>
<path d="M260.45 248.4H256.97V231.45H260.45V248.4Z" fill="#FEEB1F"/>
<path d="M277.69 243.45V243.68C277.704 243.966 277.775 244.245 277.9 244.502C278.025 244.759 278.2 244.988 278.416 245.175C278.632 245.362 278.884 245.503 279.156 245.59C279.429 245.677 279.715 245.708 280 245.68C280.267 245.714 280.538 245.693 280.796 245.619C281.055 245.545 281.295 245.42 281.505 245.251C281.714 245.082 281.887 244.873 282.013 244.636C282.139 244.398 282.216 244.138 282.24 243.87C282.239 243.608 282.176 243.35 282.056 243.117C281.936 242.884 281.763 242.683 281.55 242.53C280.925 242.103 280.232 241.785 279.5 241.59C275.79 240.26 274.5 238.87 274.5 236.28C274.5 233.2 276.76 231.14 280.09 231.14C280.811 231.084 281.535 231.176 282.219 231.41C282.902 231.644 283.531 232.016 284.066 232.502C284.6 232.988 285.03 233.579 285.329 234.237C285.627 234.895 285.787 235.608 285.8 236.33H282.3C282.318 236.04 282.272 235.749 282.165 235.478C282.059 235.207 281.895 234.963 281.685 234.762C281.474 234.561 281.223 234.409 280.947 234.315C280.672 234.221 280.379 234.189 280.09 234.22C279.833 234.186 279.573 234.207 279.325 234.28C279.077 234.354 278.847 234.478 278.65 234.646C278.453 234.814 278.293 235.021 278.181 235.254C278.069 235.487 278.007 235.741 278 236C278.001 236.333 278.095 236.66 278.272 236.943C278.449 237.225 278.701 237.453 279 237.6C279.641 237.937 280.31 238.218 281 238.44C282.298 238.806 283.502 239.447 284.53 240.32C284.97 240.741 285.317 241.25 285.55 241.813C285.782 242.376 285.895 242.981 285.88 243.59C285.88 246.69 283.54 248.75 280.03 248.75C276.52 248.75 274.29 246.75 274.31 243.47L277.69 243.45Z" fill="#FEEB1F"/>
<path d="M302.69 243.45V243.68C302.704 243.965 302.775 244.245 302.9 244.502C303.025 244.759 303.201 244.988 303.417 245.175C303.633 245.362 303.884 245.503 304.157 245.59C304.429 245.677 304.716 245.707 305 245.68C305.267 245.713 305.538 245.693 305.796 245.619C306.055 245.545 306.296 245.42 306.505 245.251C306.714 245.082 306.887 244.873 307.013 244.635C307.14 244.398 307.217 244.138 307.24 243.87C307.237 243.609 307.173 243.351 307.053 243.119C306.933 242.886 306.761 242.685 306.55 242.53C305.922 242.101 305.225 241.783 304.49 241.59C300.78 240.26 299.49 238.87 299.49 236.28C299.49 233.2 301.75 231.14 305.08 231.14C305.801 231.083 306.527 231.173 307.212 231.407C307.897 231.64 308.526 232.012 309.062 232.498C309.598 232.984 310.029 233.575 310.328 234.234C310.627 234.893 310.787 235.606 310.8 236.33H307.29C307.308 236.04 307.262 235.749 307.156 235.478C307.049 235.207 306.885 234.963 306.675 234.762C306.464 234.561 306.213 234.408 305.937 234.315C305.662 234.221 305.369 234.189 305.08 234.22C304.824 234.186 304.564 234.207 304.316 234.28C304.069 234.354 303.84 234.478 303.643 234.646C303.447 234.814 303.288 235.021 303.178 235.255C303.067 235.488 303.006 235.742 303 236C303.001 236.333 303.096 236.66 303.272 236.943C303.449 237.225 303.701 237.453 304 237.6C304.642 237.936 305.311 238.217 306 238.44C307.302 238.803 308.51 239.445 309.54 240.32C309.979 240.742 310.325 241.25 310.555 241.813C310.786 242.376 310.897 242.982 310.88 243.59C310.88 246.69 308.54 248.75 305.04 248.75C301.54 248.75 299.29 246.75 299.32 243.47L302.69 243.45Z" fill="#FEEB1F"/>
<path d="M328.32 238.47H334.27V241.31H328.32V245.56H334.27V248.4H324.84V231.45H334.27V234.3H328.32V238.47Z" fill="#FEEB1F"/>
<path d="M352.02 248.4H348.54V231.45H351.97L359.06 242.03V231.45H362.54V248.4H359.11L351.99 237.68L352.02 248.4Z" fill="#FEEB1F"/>
<path d="M211.48 270.94V271.17C211.494 271.456 211.565 271.735 211.69 271.992C211.815 272.249 211.991 272.478 212.207 272.665C212.423 272.852 212.674 272.993 212.947 273.08C213.219 273.167 213.506 273.198 213.79 273.17C214.056 273.204 214.326 273.183 214.584 273.11C214.842 273.037 215.083 272.913 215.292 272.745C215.501 272.577 215.673 272.369 215.8 272.132C215.927 271.896 216.005 271.637 216.03 271.37C216.028 271.107 215.965 270.848 215.845 270.613C215.725 270.379 215.552 270.176 215.34 270.02C214.711 269.593 214.015 269.276 213.28 269.08C209.57 267.76 208.28 266.36 208.28 263.77C208.28 260.69 210.54 258.63 213.87 258.63C214.591 258.574 215.316 258.666 216 258.9C216.685 259.134 217.314 259.506 217.849 259.992C218.385 260.478 218.815 261.068 219.115 261.726C219.414 262.384 219.576 263.097 219.59 263.82H216.08C216.098 263.53 216.052 263.239 215.946 262.968C215.839 262.698 215.675 262.453 215.465 262.252C215.254 262.051 215.003 261.899 214.727 261.805C214.452 261.711 214.159 261.679 213.87 261.71C213.614 261.676 213.354 261.697 213.106 261.77C212.859 261.844 212.629 261.968 212.433 262.136C212.237 262.304 212.078 262.511 211.968 262.745C211.857 262.978 211.796 263.232 211.79 263.49C211.789 263.824 211.882 264.151 212.059 264.434C212.236 264.718 212.489 264.945 212.79 265.09C213.432 265.426 214.101 265.707 214.79 265.93C216.089 266.295 217.293 266.936 218.32 267.81C218.761 268.233 219.109 268.743 219.341 269.308C219.574 269.872 219.686 270.48 219.67 271.09C219.67 274.19 217.33 276.24 213.83 276.24C210.33 276.24 208.08 274.24 208.11 270.96L211.48 270.94Z" fill="#FEEB1F"/>
<path d="M247.45 273.66C246.634 274.499 245.653 275.16 244.569 275.601C243.484 276.041 242.32 276.252 241.15 276.22C240.014 276.266 238.882 276.063 237.833 275.624C236.784 275.185 235.844 274.522 235.08 273.68C233.584 271.955 232.769 269.743 232.79 267.46C232.79 262.3 236.3 258.61 241.2 258.61C242.399 258.567 243.593 258.786 244.698 259.253C245.804 259.719 246.794 260.421 247.6 261.31L245.34 263.6C244.826 263.052 244.207 262.614 243.52 262.311C242.833 262.009 242.091 261.849 241.34 261.84C238.34 261.84 236.28 264.13 236.28 267.38C236.28 270.63 238.47 273 241.51 273C242.232 273.022 242.95 272.878 243.607 272.578C244.264 272.278 244.844 271.83 245.3 271.27L247.45 273.66Z" fill="#FEEB1F"/>
<path d="M264.47 275.9H260.99V258.9H264.47V266.07H270.9V258.9H274.38V275.9H270.9V268.96H264.47V275.9Z" fill="#FEEB1F"/>
<path d="M292.11 272.97L291.11 275.9H287.42L293.27 258.9H297.61L303.41 275.9H299.6L298.6 272.97H292.11ZM295.37 263.11L293 270.11H297.7L295.37 263.11Z" fill="#FEEB1F"/>
<path d="M319.88 265.96H325.83V268.82H319.88V275.92H316.4V258.92H325.83V261.82H319.88V265.96Z" fill="#FEEB1F"/>
<path d="M342.94 265.96H348.94V268.82H342.94V275.92H339.46V258.92H348.89V261.82H342.89L342.94 265.96Z" fill="#FEEB1F"/>
<path d="M368.9 275.9H365.42V261.82H361.42V258.97H372.96V261.82H368.96L368.9 275.9Z" fill="#FEEB1F"/>
<path d="M198.54 298.43V298.66C198.557 298.949 198.633 299.231 198.762 299.489C198.892 299.748 199.072 299.977 199.293 300.164C199.513 300.351 199.769 300.492 200.046 300.577C200.322 300.662 200.613 300.69 200.9 300.66C201.442 300.725 201.988 300.572 202.418 300.234C202.847 299.897 203.125 299.402 203.19 298.86C203.189 298.596 203.124 298.336 203.003 298.101C202.881 297.866 202.705 297.664 202.49 297.51C201.842 297.085 201.13 296.767 200.38 296.57C196.6 295.25 195.25 293.85 195.25 291.26C195.25 288.18 197.56 286.12 200.96 286.12C204.36 286.12 206.51 288.06 206.79 291.31H203.21C203.229 291.016 203.182 290.721 203.073 290.447C202.965 290.173 202.797 289.927 202.582 289.725C202.367 289.523 202.11 289.372 201.83 289.281C201.549 289.19 201.252 289.163 200.96 289.2C199.68 289.2 198.83 289.91 198.83 290.98C198.833 291.321 198.935 291.653 199.123 291.937C199.311 292.221 199.577 292.445 199.89 292.58C200.532 292.916 201.201 293.197 201.89 293.42C203.209 293.785 204.436 294.426 205.49 295.3C205.939 295.718 206.294 296.227 206.532 296.792C206.769 297.358 206.885 297.967 206.87 298.58C206.87 301.68 204.48 303.74 200.87 303.74C197.26 303.74 195.01 301.74 195.03 298.45L198.54 298.43Z" fill="#FEEB1F"/>
<path d="M228.45 303.39H224.9V289.28H220.77V286.44H232.55V289.28H228.45V303.39Z" fill="#FEEB1F"/>
<path d="M249.18 300.46L248.18 303.39H244.42L250.42 286.39H254.86L260.77 303.39H256.88L255.88 300.46H249.18ZM252.5 290.6L250.08 297.6H254.88L252.5 290.6Z" fill="#FEEB1F"/>
<path d="M275.24 286.44H280.11C282.91 286.44 284.8 286.99 286.33 288.32C287.226 289.121 287.935 290.11 288.405 291.216C288.875 292.323 289.095 293.519 289.05 294.72C289.14 295.887 288.975 297.061 288.566 298.158C288.158 299.255 287.516 300.251 286.684 301.075C285.853 301.9 284.852 302.534 283.752 302.934C282.651 303.334 281.477 303.489 280.31 303.39H275.2L275.24 286.44ZM278.8 300.51H279.47C280.924 300.643 282.375 300.229 283.54 299.35C284.189 298.791 284.706 298.095 285.052 297.311C285.398 296.527 285.565 295.676 285.54 294.82C285.54 291.44 283.41 289.26 280.14 289.26H278.85L278.8 300.51Z" fill="#FEEB1F"/>
<path d="M310.11 303.39H306.55V289.28H302.43V286.44H314.21V289.28H310.11V303.39Z" fill="#FEEB1F"/>
<path d="M284.14 101.28L301.24 110.29L284.13 119.19L284.14 101.28Z" fill="#FEEB1F"/>
</svg>
