<svg width="24" height="24" viewBox="0 0 24 24" fill="none" xmlns="http://www.w3.org/2000/svg">
<path d="M5.01923 13C4.2243 13 3.44723 13.2346 2.78627 13.6741C2.12531 14.1136 1.61015 14.7384 1.30595 15.4693C1.00174 16.2002 0.922147 17.0044 1.07723 17.7804C1.23231 18.5563 1.61511 19.269 2.17721 19.8284C2.73931 20.3878 3.45546 20.7688 4.23512 20.9231C5.01477 21.0775 5.82291 20.9983 6.55732 20.6955C7.29174 20.3928 7.91946 19.8801 8.3611 19.2223C8.80274 18.5645 9.03846 17.7911 9.03846 17M18.9808 13C18.1858 13 17.4088 13.2346 16.7478 13.6741C16.0868 14.1136 15.5717 14.7384 15.2675 15.4693C14.9633 16.2002 14.8837 17.0044 15.0388 17.7804C15.1939 18.5563 15.5766 19.269 16.1387 19.8284C16.7008 20.3878 17.417 20.7688 18.1967 20.9231C18.9763 21.0775 19.7844 20.9983 20.5189 20.6955C21.2533 20.3928 21.881 19.8801 22.3226 19.2223C22.7643 18.5645 23 17.7911 23 17C22.9967 15.9402 22.5721 14.9247 21.8191 14.1753C21.0661 13.4258 20.0457 13.0033 18.9808 13Z" stroke="#404040" stroke-width="2" stroke-miterlimit="10" stroke-linecap="round"/>
<path d="M6.5 9H9L5 17" stroke="#404040" stroke-width="2" stroke-linecap="round" stroke-linejoin="round"/>
<path d="M11.4286 17L14 11H8" stroke="#404040" stroke-width="2" stroke-linecap="round" stroke-linejoin="round"/>
<path d="M16.7778 7H14.5L19 17" stroke="#404040" stroke-width="2" stroke-linecap="round" stroke-linejoin="round"/>
</svg>
