<svg width="24" height="24" viewBox="0 0 24 24" fill="none" xmlns="http://www.w3.org/2000/svg">
<path d="M20.6429 6H3.35714C2.05533 6 1 7.07452 1 8.4V19.6C1 20.9255 2.05533 22 3.35714 22H20.6429C21.9447 22 23 20.9255 23 19.6V8.4C23 7.07452 21.9447 6 20.6429 6Z" stroke="#404040" stroke-width="2" stroke-linejoin="round"/>
<path d="M6.5 5.70769V4.35385C6.5 3.99478 6.66556 3.65043 6.96026 3.39653C7.25496 3.14264 7.65466 3 8.07143 3H15.9286C16.3453 3 16.745 3.14264 17.0397 3.39653C17.3344 3.65043 17.5 3.99478 17.5 4.35385V5.70769M23 10.4462H1M15.1429 10.4462V13.6615C15.1429 13.7513 15.1015 13.8374 15.0278 13.9009C14.9541 13.9643 14.8542 14 14.75 14H9.25C9.14581 14 9.04588 13.9643 8.97221 13.9009C8.89853 13.8374 8.85714 13.7513 8.85714 13.6615V10.4462" stroke="#404040" stroke-width="2" stroke-linecap="round" stroke-linejoin="round"/>
</svg>
