<svg width="24" height="24" viewBox="0 0 24 24" fill="none" xmlns="http://www.w3.org/2000/svg">
<path d="M19.3636 4H4.63636C3.73262 4 3 4.59695 3 5.33333V10.6667C3 11.403 3.73262 12 4.63636 12H19.3636C20.2674 12 21 11.403 21 10.6667V5.33333C21 4.59695 20.2674 4 19.3636 4Z" stroke="#404040" stroke-width="2" stroke-linecap="round" stroke-linejoin="round"/>
<path d="M19.3636 12H4.63636C3.73262 12 3 12.7835 3 13.75V17.25C3 18.2165 3.73262 19 4.63636 19H19.3636C20.2674 19 21 18.2165 21 17.25V13.75C21 12.7835 20.2674 12 19.3636 12Z" stroke="#404040" stroke-width="2" stroke-linecap="round" stroke-linejoin="round"/>
<path d="M6.27273 20V21.4952C6.27273 21.6291 6.21885 21.7575 6.12295 21.8521C6.02705 21.9468 5.89699 22 5.76136 22H4.32955C4.19392 22 4.06386 21.9468 3.96796 21.8521C3.87206 21.7575 3.81818 21.6291 3.81818 21.4952V19M20.1818 19V21.4952C20.1818 21.6291 20.1279 21.7575 20.032 21.8521C19.9361 21.9468 19.8061 22 19.6705 22H18.2386C18.103 22 17.9729 21.9468 17.877 21.8521C17.7811 21.7575 17.7273 21.6291 17.7273 21.4952V20M19.3636 4.23077H4.63636C4.20275 4.22957 3.78724 4.05899 3.48062 3.75631C3.17401 3.45363 3.00121 3.04344 3 2.61538C3.00121 2.18733 3.17401 1.77714 3.48062 1.47446C3.78724 1.17178 4.20275 1.0012 4.63636 1H19.3636C19.7973 1.0012 20.2128 1.17178 20.5194 1.47446C20.826 1.77714 20.9988 2.18733 21 2.61538C20.9988 3.04344 20.826 3.45363 20.5194 3.75631C20.2128 4.05899 19.7973 4.22957 19.3636 4.23077Z" stroke="#404040" stroke-width="2" stroke-linecap="round" stroke-linejoin="round"/>
<path d="M17.5 16C17.7761 16 18 15.7761 18 15.5C18 15.2239 17.7761 15 17.5 15C17.2239 15 17 15.2239 17 15.5C17 15.7761 17.2239 16 17.5 16Z" stroke="#404040" stroke-width="2" stroke-linejoin="round"/>
<path d="M6.5 16C6.77614 16 7 15.7761 7 15.5C7 15.2239 6.77614 15 6.5 15C6.22386 15 6 15.2239 6 15.5C6 15.7761 6.22386 16 6.5 16Z" stroke="#404040" stroke-width="2" stroke-linejoin="round"/>
<path d="M12 4.55556V12M3 3V17M21 3V17" stroke="#404040" stroke-width="2" stroke-linecap="round" stroke-linejoin="round"/>
</svg>
