<svg width="24" height="24" viewBox="0 0 24 24" fill="none" xmlns="http://www.w3.org/2000/svg">
<path fill-rule="evenodd" clip-rule="evenodd" d="M12 23C18.0751 23 23 18.0751 23 12C23 5.92487 18.0751 1 12 1C5.92487 1 1 5.92487 1 12C1 18.0751 5.92487 23 12 23ZM12 6.49998C8.96244 6.49998 6.5 8.96241 6.5 12C6.5 15.0375 8.96244 17.5 12 17.5C15.0376 17.5 17.5 15.0375 17.5 12C17.5 8.96241 15.0376 6.49998 12 6.49998ZM4.30001 12C4.30001 7.74739 7.74741 4.29998 12 4.29998C16.2526 4.29998 19.7 7.74739 19.7 12C19.7 16.2526 16.2526 19.7 12 19.7C7.74741 19.7 4.30001 16.2526 4.30001 12ZM10 12C10 10.8954 10.8954 10 12 10C13.1046 10 14 10.8954 14 12C14 13.1046 13.1046 14 12 14C10.8954 14 10 13.1046 10 12Z" fill="#404040"/>
</svg>
