<svg width="24" height="24" viewBox="0 0 24 24" fill="none" xmlns="http://www.w3.org/2000/svg">
<path d="M9 2C9 1.44772 8.55228 1 8 1C7.44772 1 7 1.44772 7 2H9ZM7 3V4H9V3H7ZM7 2V3H9V2H7Z" fill="#404040"/>
<path d="M17 2C17 1.44772 16.5523 1 16 1C15.4477 1 15 1.44772 15 2H17ZM15 3V4H17V3H15ZM15 2V3H17V2H15Z" fill="#404040"/>
<path fill-rule="evenodd" clip-rule="evenodd" d="M15 3H9V6C9 6.55228 8.55228 7 8 7C7.44772 7 7 6.55228 7 6V3H4.22222C2.99492 3 2 3.99492 2 5.22222V9H22V5.22222C22 3.99492 21.0051 3 19.7778 3H17V6C17 6.55228 16.5523 7 16 7C15.4477 7 15 6.55228 15 6V3ZM2 11V20.7778C2 22.0051 2.99492 23 4.22222 23H19.7778C21.0051 23 22 22.0051 22 20.7778V11H2Z" fill="#404040"/>
</svg>
