<svg width="24" height="24" viewBox="0 0 24 24" fill="none" xmlns="http://www.w3.org/2000/svg">
<path fill-rule="evenodd" clip-rule="evenodd" d="M12 1C11.4742 1 10.9577 1.13818 10.5021 1.40069L3.50386 5.3997L3.5 5.40192C3.40808 5.45499 3.3193 5.51275 3.23398 5.57489L11.9865 10.8352L20.5388 5.42472C20.526 5.41703 20.513 5.40942 20.5 5.40191L13.5 1.40192L13.4979 1.40072C13.0424 1.1382 12.5258 1 12 1ZM21.8213 6.98002L13 12.5607V22.8243C13.1721 22.7635 13.3389 22.6869 13.4982 22.595L13.5 22.594L20.4961 18.5962L20.5 18.594C20.9556 18.3309 21.334 17.9527 21.5973 17.4972C21.8606 17.0418 21.9995 16.5251 22 15.999V7.99692C21.9996 7.64884 21.9387 7.30487 21.8213 6.98002ZM11 22.8243V12.5757L2.10117 7.22748C2.03456 7.47744 2.00027 7.73602 2 7.99692V15.999C2.00054 16.5251 2.13941 17.0418 2.40269 17.4972C2.66597 17.9527 3.04439 18.3309 3.5 18.594L3.50386 18.5962L10.5 22.594L10.5019 22.595C10.6612 22.6869 10.828 22.7635 11 22.8243Z" fill="#404040"/>
</svg>
