<svg width="24" height="24" viewBox="0 0 24 24" fill="none" xmlns="http://www.w3.org/2000/svg">
<path d="M3.83732 3L20.506 20.0544C20.8223 20.378 21 20.817 21 21.2746C21 21.7323 20.8223 22.1712 20.506 22.4948V22.4948C20.1897 22.8183 19.7607 23 19.3134 23C18.8662 23 18.4372 22.8183 18.1208 22.4948L14.049 18.257C13.7825 17.9802 13.6331 17.6073 13.6328 17.2187V16.9627C13.6328 16.7666 13.5948 16.5723 13.5208 16.3913C13.4469 16.2103 13.3385 16.0461 13.2021 15.9083L12.6764 15.4116C12.4979 15.2431 12.2809 15.1233 12.0453 15.0631C11.8097 15.0029 11.5631 15.0043 11.3281 15.0672V15.0672C10.9577 15.1661 10.5684 15.1642 10.1989 15.0617C9.82934 14.9591 9.49245 14.7595 9.22164 14.4826L5.35656 10.5276C3.06367 8.18164 2.2199 4.63911 3.83732 3Z" stroke="#404040" stroke-width="2" stroke-linejoin="round"/>
<path d="M19.2499 2L15.6288 5.62116C15.3501 5.89975 15.1291 6.23051 14.9783 6.59454C14.8275 6.95857 14.7498 7.34874 14.7498 7.74277V8.43934C14.7499 8.5379 14.7304 8.63549 14.6927 8.72654C14.655 8.81759 14.5997 8.90031 14.53 8.96998L13.9998 9.50014M15.4999 11.0002L16.03 10.47C16.0997 10.4003 16.1824 10.345 16.2735 10.3073C16.3645 10.2695 16.4621 10.2501 16.5607 10.2502H17.2572C17.6513 10.2502 18.0414 10.1725 18.4055 10.0217C18.7695 9.87093 19.1002 9.64988 19.3788 9.37123L23 5.75007M21.125 3.87504L17.3749 7.62511M9.87475 17.7503L5.20029 22.451C4.84866 22.8025 4.37183 23 3.87464 23C3.37744 23 2.90061 22.8025 2.54899 22.451C2.19747 22.0994 2 21.6226 2 21.1254C2 20.6282 2.19747 20.1513 2.54899 19.7997L6.49968 15.8753" stroke="#404040" stroke-width="2" stroke-linecap="round" stroke-linejoin="round"/>
</svg>
