<svg width="24" height="24" viewBox="0 0 24 24" fill="none" xmlns="http://www.w3.org/2000/svg">
<path d="M15.9995 21.5628L12.1495 15.1828L14.1495 8.18282C14.2758 7.85314 14.3214 7.498 14.2823 7.14711C14.2432 6.79622 14.1205 6.4598 13.9247 6.16603C13.7288 5.87227 13.4655 5.6297 13.1566 5.45864C12.8478 5.28758 12.5024 5.19298 12.1495 5.18282H10.8795C9.93058 5.12645 8.99027 5.39059 8.20951 5.93282C7.32412 6.55709 6.70082 7.48668 6.45951 8.5428L5.05948 12.3928C4.96942 12.6421 4.98204 12.917 5.09455 13.157C5.20706 13.397 5.41025 13.5825 5.65949 13.6728C5.76878 13.7113 5.88364 13.7315 5.99949 13.7328C6.205 13.7327 6.40551 13.6693 6.5737 13.5512C6.7419 13.4331 6.86961 13.2661 6.93949 13.0728C6.93949 13.0728 8.38948 9.07283 8.39948 9.00283C8.53335 8.43779 8.86281 7.9383 9.3295 7.59279C9.51653 7.47633 9.72324 7.39501 9.93949 7.3528L8.6095 11.5428C8.45714 12.0059 8.40859 12.4968 8.46735 12.9807C8.52611 13.4647 8.69074 13.9297 8.9495 14.3428L14.3195 22.6028C14.463 22.8253 14.6888 22.9818 14.9475 23.038C15.2062 23.0943 15.4766 23.0456 15.6995 22.9028C15.9111 22.7599 16.0601 22.5416 16.1158 22.2924C16.1716 22.0433 16.13 21.7823 15.9995 21.5628Z" fill="#404040"/>
<path d="M7.83948 23.0728C7.73109 23.0701 7.62355 23.0533 7.5195 23.0228C7.26898 22.9365 7.06296 22.7542 6.94671 22.5161C6.83047 22.2779 6.81347 22.0034 6.89947 21.7528L9.21948 15.5328L10.6095 17.5328L8.78949 22.4028C8.72071 22.5995 8.59217 22.7699 8.42184 22.89C8.25152 23.0101 8.0479 23.0741 7.83948 23.0728Z" fill="#404040"/>
<path d="M14.8795 12.8328H13.1295L13.6595 10.8328H14.8795C15.1447 10.8328 15.3991 10.9381 15.5866 11.1257C15.7742 11.3132 15.8795 11.5676 15.8795 11.8328C15.8795 12.098 15.7742 12.3524 15.5866 12.5399C15.3991 12.7275 15.1447 12.8328 14.8795 12.8328Z" fill="#404040"/>
<path d="M15.2147 3.56175C15.4407 2.57666 14.8646 1.60389 13.928 1.38902C12.9913 1.17416 12.0488 1.79857 11.8229 2.78366C11.5969 3.76876 12.173 4.7415 13.1096 4.95637C14.0463 5.17123 14.9888 4.54685 15.2147 3.56175Z" fill="#404040"/>
</svg>
